<svg xmlns="http://www.w3.org/2000/svg" id="a" viewBox="0 0 65.52 26.79"><defs><style>.b{fill:#0065a6;}</style></defs><path class="b" d="M65.18,19.32h-8.04c.22,.86,.26,1.49,.26,2.25v2.39c.65-.05,2.14-.26,4.72-.68,1.75-.29,2.3-1.81,3.06-3.96Zm-20.11,2.21c0,2.9,2.36,5.26,5.26,5.26s5.26-2.36,5.26-5.26-2.36-5.26-5.26-5.26-5.26,2.36-5.26,5.26Zm2.48,0c0-1.53,1.25-2.78,2.78-2.78s2.78,1.25,2.78,2.78-1.25,2.78-2.78,2.78-2.78-1.25-2.78-2.78Zm-4.36,.05v2.4l-24.53-.02v-2.38c0-.76-.1-1.39-.32-2.25h25.22c-.22,.86-.37,1.49-.37,2.25ZM0,16.37v1.01H5.72c1.29-1.72,3.42-2.99,5.83-2.99,.16,0,.34,.04,.49,.05-.32-.8-.48-1.68-.48-2.69v-2.27l-2.27-2.18c3.7-2.09,8.33-4.46,16.56-4.78l.03,7.08H13.5v2.15c0,1.26,.31,2.94,1.94,3.79l-.03-.02c.78,.5,1.45,1.22,1.98,1.86h10.96v-7.32h-.01V2.47c6.11,.14,11.54,2.67,17.52,5.84v.02c0,.5,.11,1.27-1.44,1.27h-14.13v7.78h14.23c1.29-1.72,3.42-3.04,5.83-3.04s4.54,1.32,5.83,3.04h9.33v-.57c0-.68,.09-1.99-1.33-3.08-1.85-1.43-5.76-4.18-14.74-6.3C42.02,3.43,35.57,0,27.8,0,17.08,0,11.44,3.22,7.31,5.57c-.59,.34-1.15,.66-1.7,.95-.02,0-.03,.03-.05,.04h-.6c-1.51,0-2.15,.92-1.79,2.05-1.42,1.46-2.28,3.57-2.34,5.78v.07c-.62,.36-.82,1.07-.84,1.92Zm53.41-6.5c3.47,.53,8.86,3.85,9.96,4.71h-2.46c-2.09,0-2.74-.15-3.81-.77-1.75-1.01-2.26-1.28-4.05-2.45-1.17-.76-.89-1.69,.36-1.5ZM2.17,14.42c.05-1.91,.79-3.69,1.96-4.89l.85,.64-1.74,4.25h-1.07Zm2.29,7.16v.84c-1.51-.43-2.75-.82-3.16-.96-.55-.19-1.2-.62-1.27-1.52v-.61H4.77c-.22,.86-.31,1.49-.31,2.25Zm1.82-.05c0,2.9,2.36,5.26,5.26,5.26s5.26-2.36,5.26-5.26-2.36-5.26-5.26-5.26-5.26,2.36-5.26,5.26Zm2.48,0c0-1.53,1.25-2.78,2.78-2.78s2.78,1.25,2.78,2.78-1.25,2.78-2.78,2.78-2.78-1.25-2.78-2.78Z"></path></svg>