<svg xmlns="http://www.w3.org/2000/svg" id="a" viewBox="0 0 53.61 32.56"><defs><style>.b{fill:#0065a6;}</style></defs><path class="b" d="M39.1,8.87l-1.73-3.55c-.23-.47-.8-.67-1.28-.44-.25,.12-.42,.33-.5,.58l-1.55-.02h0c-.37,0-.67,.32-.67,.69,0,.37,.3,.68,.67,.68h1.93l.72,1.48,.92,.8c.74-.03,1.2-.12,1.49-.21Zm-19.44,4.54h-.89c-3.15,0-5.9-2.65-5.9-6.1v-.37h-.03c.84,1.94,2.27,2.48,5.35,2.48,.53,.02,2.23,0,2.87,0,0,1.28,.21,3.98-1.39,3.98Zm27.86,6.6c-.49-.19-1.02-.3-1.58-.33l-1.16-2.33,2.11-1.75s.04-.03,.06-.05c3.32,.08,5.74,2.3,5.92,3.19h-2.34c-1.57-.01-2.48,.46-3.01,1.25Zm-5.3-.44s0-.02,.02-.03c.11-.1,.22-.2,.33-.31h0c.36-.32,.72-.64,1.11-.97l1.72,3.53c.11-.01,.23-.03,.35-.03,1.63,0,2.94,1.32,2.94,2.94s-1.32,2.94-2.94,2.94-2.94-1.32-2.94-2.94c0-.82,.33-1.55,.87-2.08l-.93-1.9c-1.21,.91-2,2.36-2,3.99,0,2.76,2.24,5,5,5s5-2.24,5-5c0-1.65-.81-3.12-2.06-4.03,.36-.46,.93-.59,1.83-.59h1.58c.95,1.31,1.51,2.9,1.51,4.62,0,4.34-3.5,7.86-7.84,7.86-3.58,0-6.66-2.41-7.53-5.7v-.99c0-2.07,1.52-4.05,3.97-6.3ZM1.63,16.12L.09,14.99l1.38-1.87c.55,.21,1.17,.46,1.84,.72l-1.68,2.28ZM0,24.7c0,4.34,3.53,7.86,7.86,7.86,3.11,0,5.79-1.82,7.07-4.44l1.14,.12c.06-4.63-1.15-6.98-1.15-6.98-.05-.1-.1-.2-.15-.3-1.33-2.45-3.92-4.12-6.91-4.12C3.53,16.83,0,20.36,0,24.7Zm2.86,0c0-2.76,2.24-5,5-5,1.58,0,2.99,.74,3.91,1.89l-3.76,.4s-.23,.03-.24,.04c-1.26,.24-2.21,1.33-2.21,2.66s.95,2.42,2.2,2.66c.01,0,.21,.03,.24,.04l3.78,.4c-.92,1.16-2.33,1.91-3.93,1.91-2.76,0-5-2.24-5-5ZM11.14,15.06C6.94,13.18,0,10.48,0,10.48c0-2.17,3.85-3.76,6.57-3.76h4.36v.58c0,4.42,3.45,8.02,7.79,8.02h.94c.83,0,1.58-.32,2.14-.9,1.21-1.22,1.18-3.18,1.16-4.6v-1.51c1.3-1.71,3.95-1.84,5.06-1.84l3.7,.02,5.21,4.5c4.75,0,4.79-1.72,4.79-4.58l-2.26-1.99c-2.45-1.86-1.12-4.44-1.12-4.44,0,0,2.62,2.13,6.18,5.35,3.56,3.21,3.57,6.25,3.57,6.83-6.77,5.59-11.77,9.02-11.77,13.69v2.59H17.99c0-5.81-1.04-10.81-6.85-13.4Z"></path></svg>